<?xml version="1.0" standalone="no"?>
<!DOCTYPE svg PUBLIC "-//W3C//DTD SVG 20010904//EN"
 "http://www.w3.org/TR/2001/REC-SVG-20010904/DTD/svg10.dtd">
<svg version="1.0" xmlns="http://www.w3.org/2000/svg"
 width="40.000000pt" height="47.000000pt" viewBox="0 0 40.000000 47.000000"
 preserveAspectRatio="xMidYMid meet">

<g transform="translate(0.000000,47.000000) scale(0.100000,-0.100000)"
fill="#000000" stroke="none">
<path d="M153 459 c-34 -10 -93 -63 -93 -84 0 -7 7 -18 15 -25 8 -7 15 -17 15
-22 0 -6 -6 -5 -15 2 -19 15 -38 3 -32 -21 3 -10 1 -22 -4 -25 -17 -10 -10
-113 11 -156 11 -23 20 -47 20 -54 0 -28 25 -65 46 -70 30 -8 132 47 184 97
44 43 65 86 75 152 13 88 -26 160 -110 198 -44 20 -64 22 -112 8z m75 -115
c28 -20 29 -39 1 -24 -12 7 -37 9 -60 5 -46 -8 -50 -1 -11 19 35 19 43 19 70
0z m-73 -230 c11 -8 14 -14 8 -14 -7 0 -15 5 -18 10 -3 6 -17 10 -31 10 -13 0
-24 5 -24 11 0 12 36 3 65 -17z"/>
</g>
</svg>
